<svg width="512" height="512" viewBox="0 0 512 512" fill="none" xmlns="http://www.w3.org/2000/svg">
<rect width="512" height="512" rx="131.657" fill="white"/>
<path d="M256.26 359.914C277.193 359.395 294.766 354.616 308.981 345.578C323.195 336.539 333.161 324.302 338.879 308.866L302.422 290.228C294.59 310.626 278.48 321.127 254.092 321.732C242.711 322.015 234.128 320.34 228.344 316.707C222.56 313.074 219.588 308.05 219.429 301.634C219.256 294.652 222.476 289.19 229.089 285.25C235.697 281.121 247.583 276.578 264.745 271.62C283.311 265.872 297.894 259.374 308.492 252.125C321.676 242.546 328.046 228.793 327.601 210.866C327.151 192.75 319.989 178.672 306.115 168.632C292.232 158.214 275.534 153.247 256.024 153.731C238.952 154.154 223.907 158.398 210.889 166.463C197.871 174.528 187.879 185.727 180.914 200.061L216.747 218.148C224.862 200.953 238.268 192.124 256.965 191.66C265.501 191.448 272.356 193.166 277.531 196.814C282.701 200.273 285.358 204.928 285.503 210.778C285.658 217.005 283.04 222.168 277.651 226.267C271.653 230.381 260.984 234.799 245.646 239.523L231.126 244.415C228.502 245.235 223.97 246.953 217.527 249.567C211.481 251.794 207.059 253.886 204.261 255.844C194.443 261.752 187.881 267.768 184.576 273.893C179.489 281.949 177.078 291.355 177.345 302.111C177.8 320.416 185.375 334.767 200.072 345.165C214.768 355.563 233.497 360.479 256.26 359.914Z" fill="black"/>
</svg>
